HIERARCHY
ROOT SpineBase
{
  OFFSET 0.000000 0.000000 0.000000
  CHANNELS 6 Xposition Yposition Zposition Zrotation Xrotation Yrotation
  JOINT SpineMid
  {
    OFFSET -0.000000 34.737783 -0.000000
    CHANNELS 3 Zrotation Xrotation Yrotation
    JOINT SpineShoulder
    {
      OFFSET 0.345246 25.835739 -0.763921
      CHANNELS 3 Zrotation Xrotation Yrotation
      JOINT Neck
      {
        OFFSET 0.245168 8.512375 -0.623677
        CHANNELS 3 Zrotation Xrotation Yrotation
        JOINT Head
        {
          OFFSET 2.871610 10.641483 7.204770
          CHANNELS 3 Zrotation Xrotation Yrotation
          End Site
          {
            OFFSET 0 0 0
          }
        }
      }
      JOINT ShoulderLeft
      {
        OFFSET 2.842851 -4.873638 -12.799745
        CHANNELS 3 Zrotation Xrotation Yrotation
        JOINT ElbowLeft
        {
          OFFSET 9.073892 -28.627254 -3.181732
          CHANNELS 3 Zrotation Xrotation Yrotation
          JOINT WristLeft
          {
            OFFSET 5.432970 -20.851951 5.113597
            CHANNELS 3 Zrotation Xrotation Yrotation
            JOINT HandLeft
            {
              OFFSET 0.621077 -8.216372 3.100304
              CHANNELS 3 Zrotation Xrotation Yrotation
              JOINT HandTipLeft
              {
                OFFSET -0.453291 -8.604242 1.153564
                CHANNELS 3 Zrotation Xrotation Yrotation
                End Site
                {
                  OFFSET 0 0 0
                }
              }
              JOINT ThumbLeft
              {
                OFFSET 1.642533 -1.679420 -3.438960
                CHANNELS 3 Zrotation Xrotation Yrotation
                End Site
                {
                  OFFSET 0 0 0
                }
              }
            }
          }
        }
      }
      JOINT ShoulderRight
      {
        OFFSET 11.685166 -9.975725 -12.493623
        CHANNELS 3 Zrotation Xrotation Yrotation
        JOINT ElbowRight
        {
          OFFSET 2.329902 -30.451205 -1.607595
          CHANNELS 3 Zrotation Xrotation Yrotation
          JOINT WristRight
          {
            OFFSET 2.770336 -22.461917 7.874144
            CHANNELS 3 Zrotation Xrotation Yrotation
            JOINT HandRight
            {
              OFFSET 1.222010 -2.578116 -1.129055
              CHANNELS 3 Zrotation Xrotation Yrotation
              JOINT HandTipRight
              {
                OFFSET 0.225068 -5.643253 0.653071
                CHANNELS 3 Zrotation Xrotation Yrotation
                End Site
                {
                  OFFSET 0 0 0
                }
              }
              JOINT ThumbRight
              {
                OFFSET -2.356790 1.353182 0.258634
                CHANNELS 3 Zrotation Xrotation Yrotation
                End Site
                {
                  OFFSET 0 0 0
                }
              }
            }
          }
        }
      }
    }
  }
  JOINT HipLeft
  {
    OFFSET -4.988474 0.502172 -6.362877
    CHANNELS 3 Zrotation Xrotation Yrotation
    JOINT KneeLeft
    {
      OFFSET -0.368250 -35.357478 2.073284
      CHANNELS 3 Zrotation Xrotation Yrotation
      JOINT AnkleLeft
      {
        OFFSET -2.265647 -34.677092 -1.330416
        CHANNELS 3 Zrotation Xrotation Yrotation
        JOINT FootLeft
        {
          OFFSET 3.052455 -6.697212 -0.056875
          CHANNELS 3 Zrotation Xrotation Yrotation
          End Site
          {
            OFFSET 0 0 0
          }
        }
      }
    }
  }
  JOINT HipRight
  {
    OFFSET 7.673772 1.246183 -1.146316
    CHANNELS 3 Zrotation Xrotation Yrotation
    JOINT KneeRight
    {
      OFFSET -8.525968 -30.126353 -5.616788
      CHANNELS 3 Zrotation Xrotation Yrotation
      JOINT AnkleRight
      {
        OFFSET -18.481931 -38.375023 7.289948
        CHANNELS 3 Zrotation Xrotation Yrotation
        JOINT FootRight
        {
          OFFSET 1.557759 -5.658351 -9.099305
          CHANNELS 3 Zrotation Xrotation Yrotation
          End Site
          {
            OFFSET 0 0 0
          }
        }
      }
    }
  }
}
MOTION
Frames: 5
Frame Time: 0.033333
-110.251075 76.505993 313.609817 0.000000 -0.000000 -22.390562 -0.000000 0.000000 22.390562 -0.000000 0.000000 0.000000 -0.000000 0.000000 0.000000 0.000000 0.000000 0.000000 -0.000000 0.000000 0.000000 -0.000000 0.000000 0.000000 -0.000000 0.000000 0.000000 -0.000000 0.000000 0.000000 0.000000 0.000000 0.000000 0.000000 0.000000 0.000000 -0.000000 0.000000 0.000000 -0.000000 0.000000 0.000000 -0.000000 0.000000 0.000000 -0.000000 0.000000 0.000000 0.000000 0.000000 0.000000 0.000000 0.000000 0.000000 -0.000000 0.000000 22.390562 -0.000000 0.000000 0.000000 -0.000000 0.000000 0.000000 0.000000 0.000000 0.000000 -0.000000 0.000000 22.390562 -0.000000 0.000000 0.000000 -0.000000 0.000000 0.000000 0.000000 0.000000 0.000000
-110.698940 76.366779 313.596361 -0.420712 -0.010865 -22.217383 0.385370 0.169137 22.216774 -0.000000 0.000000 0.000000 -0.000000 0.000000 0.000000 0.000000 0.000000 0.000000 -0.000000 0.000000 0.000000 -0.000000 0.000000 0.000000 -1.614780 -0.999351 -0.697415 2.175476 1.707024 0.697414 0.000000 0.000000 0.000000 0.000000 0.000000 0.000000 -0.000000 0.000000 0.000000 -0.131924 -0.825334 -0.148637 -1.329134 -2.115168 -0.633194 -0.520779 3.818135 0.653190 0.000000 0.000000 0.000000 0.000000 0.000000 0.000000 0.385370 0.169137 22.216774 -1.868831 -0.796519 0.110668 14.441992 6.246341 1.404096 0.000000 0.000000 0.000000 1.999178 0.138143 22.116421 -3.820174 -0.952727 0.412695 0.756327 -4.548373 0.503060 0.000000 0.000000 0.000000
-111.063378 76.242948 313.591839 -0.747549 -0.028587 -22.049661 0.682148 0.307125 22.047647 -0.000000 0.000000 0.000000 -0.000000 0.000000 0.000000 0.000000 0.000000 0.000000 -0.000000 0.000000 0.000000 0.288756 -1.362089 -0.279664 -3.229440 0.026652 -0.884557 4.013048 2.777212 1.210555 0.000000 0.000000 0.000000 0.000000 0.000000 0.000000 -0.299665 -0.771048 -0.045217 0.062478 -0.617936 -0.212108 -2.503475 -3.205951 -0.788989 -0.917323 6.178910 0.879215 0.000000 0.000000 0.000000 0.000000 0.000000 0.000000 1.874012 0.865368 22.111797 -4.713493 -1.521979 0.101067 24.621484 10.550778 1.364879 0.000000 0.000000 0.000000 3.518071 0.293917 21.846673 -7.368586 -2.225021 0.821089 2.581233 -7.956457 -0.628404 0.000000 0.000000 0.000000
-111.344390 76.134500 313.596252 -0.981724 -0.053130 -21.891037 0.891145 0.415306 21.887352 -0.000000 0.000000 0.000000 0.440889 -0.904194 -0.051350 0.000000 0.000000 0.000000 -0.000000 0.000000 0.000000 0.360552 -1.794180 -0.371713 -4.351341 0.796733 -1.103346 5.541261 3.195187 1.590785 0.000000 0.000000 0.000000 0.000000 0.000000 0.000000 -0.448531 -1.029116 -0.059137 0.133453 -0.661536 -0.265567 -3.454491 -3.223833 -0.423764 -1.221809 7.068557 0.562513 0.000000 0.000000 0.000000 0.000000 0.000000 0.000000 2.486775 1.190301 21.967476 -6.368594 -2.100129 0.112231 31.604753 13.260591 0.837311 0.000000 0.000000 0.000000 4.646578 0.463505 21.585676 -10.642809 -3.724873 1.188604 5.295240 -10.080218 -3.403669 0.000000 0.000000 0.000000
-111.541976 76.041433 313.609600 -1.124227 -0.084474 -21.744535 1.012967 0.494919 21.739331 -0.000000 0.000000 0.000000 0.435768 -1.007699 -0.019404 0.000000 0.000000 0.000000 0.458325 -0.768232 -0.291222 -0.066754 -1.291970 -0.140849 -5.156805 2.086064 -1.175383 6.776204 2.929879 1.874947 0.000000 0.000000 0.000000 0.000000 0.000000 0.000000 -0.596600 -1.202033 -0.066800 0.231860 -0.528948 -0.283458 -4.165245 -2.206080 0.456311 -1.483081 6.551745 -0.339137 0.000000 0.000000 0.000000 0.000000 0.000000 0.000000 2.883451 1.446709 21.828218 -7.567902 -2.561530 0.109946 36.230737 14.825368 0.258442 0.000000 0.000000 0.000000 5.446100 0.645671 21.336827 -13.597074 -5.354058 1.492306 8.751947 -10.951972 -7.785957 0.000000 0.000000 0.000000
